<mxfile host="drawio-plugin" modified="2024-01-07T10:27:17.904Z" agent="5.0 (Windows NT 10.0; Win64; x64) AppleWebKit/537.36 (KHTML, like Gecko) Chrome/111.0.0.0 Safari/537.36" etag="gtANkDRVcttstyEiKrUK" version="20.5.3" type="embed"><diagram id="K3-QVrZget0wGn01KirO" name="Page-1"><mxGraphModel dx="1896" dy="545" grid="1" gridSize="10" guides="1" tooltips="1" connect="1" arrows="1" fold="1" page="1" pageScale="1" pageWidth="850" pageHeight="1100" background="none" math="0" shadow="0"><root><mxCell id="0"/><mxCell id="1" parent="0"/><mxCell id="14" value="" style="shape=image;verticalLabelPosition=bottom;verticalAlign=top;imageAspect=0;image=https://www.w3resource.com/w3r_images/java-basic-image-exercise-39.png" parent="1" vertex="1"><mxGeometry x="-850" y="5.684341886080802e-14" width="312" height="160.05" as="geometry"/></mxCell><mxCell id="19" value="" style="edgeStyle=none;html=1;" parent="1" edge="1"><mxGeometry relative="1" as="geometry"><mxPoint x="-310" y="80" as="sourcePoint"/><mxPoint x="-310" y="120" as="targetPoint"/></mxGeometry></mxCell><mxCell id="20" value="start" style="strokeWidth=2;html=1;shape=mxgraph.flowchart.start_1;whiteSpace=wrap;" parent="1" vertex="1"><mxGeometry x="-360" y="30" width="100" height="50" as="geometry"/></mxCell><mxCell id="26" value="" style="edgeStyle=none;html=1;" parent="1" source="21" target="25" edge="1"><mxGeometry relative="1" as="geometry"/></mxCell><mxCell id="21" value="uniqueNums = []&lt;br&gt;count = 0&lt;br&gt;i = 0" style="rounded=1;whiteSpace=wrap;html=1;absoluteArcSize=1;arcSize=14;strokeWidth=2;" parent="1" vertex="1"><mxGeometry x="-366.53999999999996" y="200" width="113.09" height="70" as="geometry"/></mxCell><mxCell id="24" value="" style="edgeStyle=none;html=1;" parent="1" source="23" target="21" edge="1"><mxGeometry relative="1" as="geometry"/></mxCell><mxCell id="23" value="nums = {1, 2, 3, 4}" style="shape=parallelogram;html=1;strokeWidth=2;perimeter=parallelogramPerimeter;whiteSpace=wrap;rounded=1;arcSize=12;size=0.23;" parent="1" vertex="1"><mxGeometry x="-402.5" y="120" width="185" height="60" as="geometry"/></mxCell><mxCell id="28" value="" style="edgeStyle=none;html=1;" parent="1" source="25" target="27" edge="1"><mxGeometry relative="1" as="geometry"/></mxCell><mxCell id="79" style="edgeStyle=none;html=1;endArrow=classic;endFill=1;" parent="1" source="25" target="80" edge="1"><mxGeometry relative="1" as="geometry"><mxPoint x="-520" y="1771" as="targetPoint"/><Array as="points"><mxPoint x="-600" y="350"/></Array></mxGeometry></mxCell><mxCell id="25" value="i &amp;lt; nums.length" style="rhombus;whiteSpace=wrap;html=1;rounded=1;arcSize=14;strokeWidth=2;" parent="1" vertex="1"><mxGeometry x="-360" y="300" width="100" height="100" as="geometry"/></mxCell><mxCell id="36" value="" style="edgeStyle=none;html=1;" parent="1" source="27" target="35" edge="1"><mxGeometry relative="1" as="geometry"/></mxCell><mxCell id="27" value="first = nums[i]" style="whiteSpace=wrap;html=1;rounded=1;arcSize=14;strokeWidth=2;" parent="1" vertex="1"><mxGeometry x="-370" y="440" width="120" height="60" as="geometry"/></mxCell><mxCell id="32" style="edgeStyle=none;html=1;entryX=1;entryY=0.5;entryDx=0;entryDy=0;" parent="1" source="30" target="25" edge="1"><mxGeometry relative="1" as="geometry"><Array as="points"><mxPoint x="-110" y="350"/></Array></mxGeometry></mxCell><mxCell id="30" value="i = i + 1" style="whiteSpace=wrap;html=1;rounded=1;arcSize=14;strokeWidth=2;" parent="1" vertex="1"><mxGeometry x="-170" y="440" width="120" height="60" as="geometry"/></mxCell><mxCell id="38" value="" style="edgeStyle=none;html=1;" parent="1" source="35" target="37" edge="1"><mxGeometry relative="1" as="geometry"/></mxCell><mxCell id="35" value="j = 0;" style="whiteSpace=wrap;html=1;rounded=1;arcSize=14;strokeWidth=2;" parent="1" vertex="1"><mxGeometry x="-370" y="550" width="120" height="60" as="geometry"/></mxCell><mxCell id="40" value="" style="edgeStyle=none;html=1;" parent="1" source="37" target="39" edge="1"><mxGeometry relative="1" as="geometry"/></mxCell><mxCell id="78" style="edgeStyle=none;html=1;entryX=0.5;entryY=1;entryDx=0;entryDy=0;endArrow=classic;endFill=1;" parent="1" source="37" target="30" edge="1"><mxGeometry relative="1" as="geometry"><Array as="points"><mxPoint x="-470" y="710"/><mxPoint x="-470" y="640"/><mxPoint x="-110" y="640"/></Array></mxGeometry></mxCell><mxCell id="37" value="j &amp;lt; nums.length" style="rhombus;whiteSpace=wrap;html=1;rounded=1;arcSize=14;strokeWidth=2;" parent="1" vertex="1"><mxGeometry x="-360" y="660" width="100" height="100" as="geometry"/></mxCell><mxCell id="60" value="" style="edgeStyle=none;html=1;" parent="1" source="39" target="59" edge="1"><mxGeometry relative="1" as="geometry"/></mxCell><mxCell id="39" value="second = nums[j]" style="whiteSpace=wrap;html=1;rounded=1;arcSize=14;strokeWidth=2;" parent="1" vertex="1"><mxGeometry x="-370" y="800" width="120" height="60" as="geometry"/></mxCell><mxCell id="43" style="edgeStyle=none;html=1;entryX=1;entryY=0.5;entryDx=0;entryDy=0;" parent="1" source="41" target="37" edge="1"><mxGeometry relative="1" as="geometry"><Array as="points"><mxPoint x="-110" y="710"/></Array></mxGeometry></mxCell><mxCell id="41" value="j = j + 1" style="whiteSpace=wrap;html=1;rounded=1;arcSize=14;strokeWidth=2;" parent="1" vertex="1"><mxGeometry x="-170" y="800" width="120" height="60" as="geometry"/></mxCell><mxCell id="47" value="" style="edgeStyle=none;html=1;" parent="1" source="44" target="46" edge="1"><mxGeometry relative="1" as="geometry"/></mxCell><mxCell id="44" value="k = 0" style="whiteSpace=wrap;html=1;rounded=1;arcSize=14;strokeWidth=2;" parent="1" vertex="1"><mxGeometry x="-370" y="1010" width="120" height="60" as="geometry"/></mxCell><mxCell id="49" value="" style="edgeStyle=none;html=1;" parent="1" source="46" target="48" edge="1"><mxGeometry relative="1" as="geometry"/></mxCell><mxCell id="77" style="edgeStyle=none;html=1;endArrow=classic;endFill=1;" parent="1" source="46" edge="1"><mxGeometry relative="1" as="geometry"><Array as="points"><mxPoint x="-470" y="1165"/><mxPoint x="-470" y="1100"/><mxPoint x="-110" y="1100"/></Array><mxPoint x="-110" y="920" as="targetPoint"/></mxGeometry></mxCell><mxCell id="46" value="k &amp;lt; nums.length" style="rhombus;whiteSpace=wrap;html=1;rounded=1;arcSize=14;strokeWidth=2;" parent="1" vertex="1"><mxGeometry x="-365" y="1120" width="110" height="90" as="geometry"/></mxCell><mxCell id="56" value="" style="edgeStyle=none;html=1;" parent="1" source="48" target="55" edge="1"><mxGeometry relative="1" as="geometry"/></mxCell><mxCell id="48" value="third = nums[k]" style="whiteSpace=wrap;html=1;rounded=1;arcSize=14;strokeWidth=2;" parent="1" vertex="1"><mxGeometry x="-370" y="1250" width="120" height="60" as="geometry"/></mxCell><mxCell id="52" style="edgeStyle=none;html=1;entryX=1;entryY=0.5;entryDx=0;entryDy=0;" parent="1" source="50" target="46" edge="1"><mxGeometry relative="1" as="geometry"><Array as="points"><mxPoint x="-110" y="1165"/></Array></mxGeometry></mxCell><mxCell id="50" value="k = k + 1" style="whiteSpace=wrap;html=1;rounded=1;arcSize=14;strokeWidth=2;" parent="1" vertex="1"><mxGeometry x="-170" y="1250" width="120" height="60" as="geometry"/></mxCell><mxCell id="58" value="" style="edgeStyle=none;html=1;" parent="1" source="55" target="57" edge="1"><mxGeometry relative="1" as="geometry"/></mxCell><mxCell id="68" style="edgeStyle=none;html=1;entryX=0.5;entryY=1;entryDx=0;entryDy=0;" parent="1" source="55" target="50" edge="1"><mxGeometry relative="1" as="geometry"><Array as="points"><mxPoint x="-110" y="1415"/></Array></mxGeometry></mxCell><mxCell id="55" value="third != first &amp;amp;&amp;amp;&lt;br&gt;&amp;nbsp;third != second" style="rhombus;whiteSpace=wrap;html=1;rounded=1;arcSize=14;strokeWidth=2;" parent="1" vertex="1"><mxGeometry x="-387.5" y="1370" width="155" height="90" as="geometry"/></mxCell><mxCell id="70" value="" style="edgeStyle=none;html=1;" parent="1" source="57" target="69" edge="1"><mxGeometry relative="1" as="geometry"/></mxCell><mxCell id="57" value="int number = first * 100 + second * 10 + third&lt;br&gt;count++;" style="whiteSpace=wrap;html=1;rounded=1;arcSize=14;strokeWidth=2;" parent="1" vertex="1"><mxGeometry x="-440" y="1520" width="260" height="100" as="geometry"/></mxCell><mxCell id="61" value="" style="edgeStyle=none;html=1;" parent="1" source="59" target="44" edge="1"><mxGeometry relative="1" as="geometry"/></mxCell><mxCell id="62" style="edgeStyle=none;html=1;entryX=0.5;entryY=1;entryDx=0;entryDy=0;" parent="1" source="59" target="41" edge="1"><mxGeometry relative="1" as="geometry"><Array as="points"><mxPoint x="-110" y="930"/></Array></mxGeometry></mxCell><mxCell id="59" value="first != second" style="rhombus;whiteSpace=wrap;html=1;rounded=1;arcSize=14;strokeWidth=2;" parent="1" vertex="1"><mxGeometry x="-369.99" y="890" width="120" height="80" as="geometry"/></mxCell><mxCell id="63" value="Yes" style="text;html=1;strokeColor=none;fillColor=none;align=center;verticalAlign=middle;whiteSpace=wrap;rounded=0;" parent="1" vertex="1"><mxGeometry x="-360" y="970" width="60" height="30" as="geometry"/></mxCell><mxCell id="64" value="Yes" style="text;html=1;strokeColor=none;fillColor=none;align=center;verticalAlign=middle;whiteSpace=wrap;rounded=0;" parent="1" vertex="1"><mxGeometry x="-360" y="760" width="60" height="30" as="geometry"/></mxCell><mxCell id="65" value="Yes" style="text;html=1;strokeColor=none;fillColor=none;align=center;verticalAlign=middle;whiteSpace=wrap;rounded=0;" parent="1" vertex="1"><mxGeometry x="-365" y="400" width="60" height="30" as="geometry"/></mxCell><mxCell id="66" value="Yes" style="text;html=1;strokeColor=none;fillColor=none;align=center;verticalAlign=middle;whiteSpace=wrap;rounded=0;" parent="1" vertex="1"><mxGeometry x="-370" y="1210" width="60" height="30" as="geometry"/></mxCell><mxCell id="67" value="Yes" style="text;html=1;strokeColor=none;fillColor=none;align=center;verticalAlign=middle;whiteSpace=wrap;rounded=0;" parent="1" vertex="1"><mxGeometry x="-370" y="1470" width="60" height="30" as="geometry"/></mxCell><mxCell id="73" value="" style="edgeStyle=none;html=1;endArrow=none;endFill=0;" parent="1" source="69" edge="1"><mxGeometry relative="1" as="geometry"><mxPoint x="-110" y="1400" as="targetPoint"/><Array as="points"><mxPoint x="-110" y="1700"/></Array></mxGeometry></mxCell><mxCell id="69" value="print(number)" style="shape=parallelogram;html=1;strokeWidth=2;perimeter=parallelogramPerimeter;whiteSpace=wrap;rounded=1;arcSize=12;size=0.23;" parent="1" vertex="1"><mxGeometry x="-375" y="1670" width="130" height="60" as="geometry"/></mxCell><mxCell id="89" value="" style="edgeStyle=none;html=1;endArrow=classic;endFill=1;" parent="1" source="80" target="88" edge="1"><mxGeometry relative="1" as="geometry"/></mxCell><mxCell id="80" value="print(count)" style="shape=parallelogram;html=1;strokeWidth=2;perimeter=parallelogramPerimeter;whiteSpace=wrap;rounded=1;arcSize=12;size=0.23;" parent="1" vertex="1"><mxGeometry x="-650" y="385" width="100" height="60" as="geometry"/></mxCell><mxCell id="81" value="No" style="text;html=1;strokeColor=none;fillColor=none;align=center;verticalAlign=middle;whiteSpace=wrap;rounded=0;" parent="1" vertex="1"><mxGeometry x="-447.5" y="320" width="60" height="30" as="geometry"/></mxCell><mxCell id="82" value="No" style="text;html=1;strokeColor=none;fillColor=none;align=center;verticalAlign=middle;whiteSpace=wrap;rounded=0;" parent="1" vertex="1"><mxGeometry x="-430" y="680" width="60" height="30" as="geometry"/></mxCell><mxCell id="83" value="No" style="text;html=1;strokeColor=none;fillColor=none;align=center;verticalAlign=middle;whiteSpace=wrap;rounded=0;" parent="1" vertex="1"><mxGeometry x="-249.99" y="900" width="60" height="30" as="geometry"/></mxCell><mxCell id="86" value="No" style="text;html=1;strokeColor=none;fillColor=none;align=center;verticalAlign=middle;whiteSpace=wrap;rounded=0;" parent="1" vertex="1"><mxGeometry x="-440" y="1140" width="60" height="30" as="geometry"/></mxCell><mxCell id="87" value="No" style="text;html=1;strokeColor=none;fillColor=none;align=center;verticalAlign=middle;whiteSpace=wrap;rounded=0;" parent="1" vertex="1"><mxGeometry x="-232.5" y="1390" width="60" height="30" as="geometry"/></mxCell><mxCell id="88" value="End" style="strokeWidth=2;html=1;shape=mxgraph.flowchart.start_1;whiteSpace=wrap;" parent="1" vertex="1"><mxGeometry x="-650" y="500" width="100" height="60" as="geometry"/></mxCell></root></mxGraphModel></diagram></mxfile>